<svg xmlns="http://www.w3.org/2000/svg" viewBox="0 0 173.88 46.39">
  <defs>
    <style>.cls-1{fill:#1798af;}.cls-2{fill:#ff985a;}.cls-3{fill:#fff;}</style>
  </defs>
  <title>Asset 4</title>
  <g id="Layer_2" data-name="Layer 2">
    <g id="Layer_1-2" data-name="Layer 1">
      <polygon class="cls-1"
               points="24.88 37.17 26.27 35.77 30.05 39.55 32.28 37.31 28.51 33.54 29.91 32.14 33.68 35.91 35.92 33.68 32.14 29.91 33.54 28.51 37.31 32.28 39.55 30.05 23.9 14.39 17.75 20.54 10.2 13 0 23.2 2.94 26.13 6.01 23.06 6.01 23.06 7.27 21.8 23.2 37.73 21.94 38.99 21.94 38.99 18.87 42.06 23.2 46.4 28.65 40.95 24.88 37.17"/>
      <polygon class="cls-2" points="23.9 11.6 40.95 28.65 46.4 23.2 23.2 0 11.6 11.6 17.75 17.75 23.9 11.6"/>
      <rect class="cls-2" x="15.72" y="36.43" width="4.34" height="3.16"
            transform="translate(-21.64 23.78) rotate(-45)"/>
      <rect class="cls-2" x="4.81" y="25.53" width="4.34" height="3.16"
            transform="translate(-17.13 12.88) rotate(-45)"/>
      <rect class="cls-2" x="8.45" y="29.16" width="4.34" height="3.16"
            transform="translate(-18.63 16.52) rotate(-45)"/>
      <rect class="cls-2" x="12.08" y="32.8" width="4.34" height="3.16"
            transform="translate(-20.13 20.15) rotate(-45)"/>
      <path class="cls-3" d="M147,13.37V38.79H140.9V13.37Z"/>
      <path class="cls-2"
            d="M140.9,7.71q0-1.1,0-1.65a1.11,1.11,0,0,1,.3-.8,1.41,1.41,0,0,1,.9-.28q.63,0,1.83,0t1.83,0a1.42,1.42,0,0,1,.9.28,1.11,1.11,0,0,1,.3.8q0,.55,0,1.65t0,1.65a1.11,1.11,0,0,1-.3.8,1.41,1.41,0,0,1-.9.28q-.63,0-1.83,0t-1.83,0a1.41,1.41,0,0,1-.9-.28,1.11,1.11,0,0,1-.3-.8Q140.9,8.81,140.9,7.71Z"/>
      <path class="cls-3" d="M72.37,38.79H68.26L60,13.37h6.17l6.22,19,6.22-19h6.17L76.48,38.79Z"/>
      <path class="cls-3"
            d="M87.16,26.11a18.47,18.47,0,0,1,.5-4.56A13.35,13.35,0,0,1,89,18.16a9.47,9.47,0,0,1,1.91-2.38,12,12,0,0,1,2.18-1.55,12.48,12.48,0,0,1,11.88,0,12,12,0,0,1,2.18,1.55A9.48,9.48,0,0,1,109,18.16a14,14,0,0,1,1.35,3.38,17.64,17.64,0,0,1,.53,4.56,17.63,17.63,0,0,1-.53,4.56A13.51,13.51,0,0,1,109,34a9.17,9.17,0,0,1-1.91,2.33A12.64,12.64,0,0,1,105,37.89a13.27,13.27,0,0,1-11.88,0,12.57,12.57,0,0,1-2.18-1.53A9.16,9.16,0,0,1,89,34a12.9,12.9,0,0,1-1.33-3.36A18.47,18.47,0,0,1,87.16,26.11ZM99,18.64a5.29,5.29,0,0,0-3,.75,5.16,5.16,0,0,0-1.73,1.88,7.58,7.58,0,0,0-.8,2.43,14.53,14.53,0,0,0,0,4.81,7.57,7.57,0,0,0,.8,2.43,5.16,5.16,0,0,0,1.73,1.88,6.29,6.29,0,0,0,6,0,5.17,5.17,0,0,0,1.73-1.88,7.58,7.58,0,0,0,.8-2.43,14.53,14.53,0,0,0,0-4.81,7.59,7.59,0,0,0-.8-2.43A5.17,5.17,0,0,0,102,19.39,5.3,5.3,0,0,0,99,18.64Z"/>
      <path class="cls-3"
            d="M118.94,18.39a8.28,8.28,0,0,1,2.16-3.23,10.3,10.3,0,0,1,2.56-1.68,10.45,10.45,0,0,1,3-.75,11.52,11.52,0,0,1,5.51,1.5,10.15,10.15,0,0,1,2,1.55A9.92,9.92,0,0,1,136,18.16a14.06,14.06,0,0,1,1.25,3.38,19.43,19.43,0,0,1,.48,4.56,17.66,17.66,0,0,1-.53,4.56A13.55,13.55,0,0,1,135.81,34a9.2,9.2,0,0,1-1.91,2.33,12.66,12.66,0,0,1-2.18,1.53,13.1,13.1,0,0,1-5.92,1.4,12.78,12.78,0,0,1-5.87-1.4,11.83,11.83,0,0,1-2.16-1.53A9.31,9.31,0,0,1,115.91,34a13.33,13.33,0,0,1-1.33-3.38,18.46,18.46,0,0,1-.5-4.56V5h6v12Zm6.87,15.19a5.29,5.29,0,0,0,3-.75,5.16,5.16,0,0,0,1.73-1.88,7.58,7.58,0,0,0,.8-2.43,14.53,14.53,0,0,0,0-4.81,7.59,7.59,0,0,0-.8-2.43,5.16,5.16,0,0,0-1.73-1.88,6.29,6.29,0,0,0-6,0,5.38,5.38,0,0,0-1.75,1.88,7.22,7.22,0,0,0-.83,2.43,14.53,14.53,0,0,0,0,4.81,7.21,7.21,0,0,0,.83,2.43,5.38,5.38,0,0,0,1.75,1.88A5.29,5.29,0,0,0,125.81,33.58Z"/>
      <path class="cls-3"
            d="M161.3,23.4l1.93,0a25.67,25.67,0,0,1,2.63.2,17.68,17.68,0,0,1,2.83.6,9,9,0,0,1,2.58,1.23,6.35,6.35,0,0,1,1.88,2.06,6.12,6.12,0,0,1,.73,3.11,7.63,7.63,0,0,1-1.28,4.64,8.47,8.47,0,0,1-3.13,2.63,12.35,12.35,0,0,1-4,1.15,32.76,32.76,0,0,1-3.78.25l-1.3,0a14.86,14.86,0,0,1-2.33-.28,17.18,17.18,0,0,1-2.81-.8,9.18,9.18,0,0,1-2.71-1.58,8,8,0,0,1-2-2.66,9,9,0,0,1-.8-4h6.12A4.72,4.72,0,0,0,156,31a2.8,2.8,0,0,0,.7,1.23,4.32,4.32,0,0,0,1.65,1,9.24,9.24,0,0,0,3,.48,18,18,0,0,0,3.63-.2,5,5,0,0,0,1.88-.68,1.72,1.72,0,0,0,.73-.88,3.21,3.21,0,0,0,.13-.85,2.84,2.84,0,0,0-.15-.9,1.65,1.65,0,0,0-.78-.83,6.24,6.24,0,0,0-2-.63,23.8,23.8,0,0,0-3.68-.3,16.7,16.7,0,0,1-3.61-.5,10.93,10.93,0,0,1-3.26-1.38,7.64,7.64,0,0,1-2.36-2.33A6,6,0,0,1,151,21a7.3,7.3,0,0,1,.9-3.68,7.68,7.68,0,0,1,2.38-2.58,11,11,0,0,1,3.38-1.5,15.73,15.73,0,0,1,4-.5,23.26,23.26,0,0,1,3,.25,11.38,11.38,0,0,1,3.63,1.15,8.57,8.57,0,0,1,3.06,2.66,7.71,7.71,0,0,1,1.23,4.76h-6.12A3.17,3.17,0,0,0,165.39,19a6,6,0,0,0-3.84-.93,6.22,6.22,0,0,0-3.31.78A2.4,2.4,0,0,0,157,21a1.9,1.9,0,0,0,1.2,1.85A7.49,7.49,0,0,0,161.3,23.4Z"/>
    </g>
  </g>
</svg>
